<svg xmlns="http://www.w3.org/2000/svg" width="24.167" height="20" viewBox="0 0 24.167 20">
  <g id="Cases_Icon" data-name="Cases Icon" transform="translate(-1.999 -5.602)">
    <path id="Path_27" data-name="Path 27" d="M5.25,34.167H6.917V32.5l.833-5H9.833V25H5.25L4,32.5Z" transform="translate(-1.167 -13.982)" fill="#fff"/>
    <path id="Path_30" data-name="Path 30" d="M17.64,26.449l.071-.071a.417.417,0,1,0-.589-.589l-.071.071a1.25,1.25,0,0,1-1.768,0l-.071-.071a.417.417,0,1,0-.589.589l.071.071a2.083,2.083,0,0,0,2.947,0ZM10.333,24h-7.5a.417.417,0,0,0-.412.358L2,27.275a.419.419,0,0,0,.1.333.432.432,0,0,0,.317.142H3.1l-.683,4.1a.434.434,0,0,0,.079.317l1.25,1.667A.423.423,0,0,0,4.083,34H5.75a.417.417,0,0,0,.417-.417V31.95l.421-2.533H7.833A.417.417,0,0,0,8.25,29V27.333h2.083a.417.417,0,0,0,.417-.417v-2.5A.417.417,0,0,0,10.333,24ZM2.9,26.917l.3-2.083h.4l-.346,2.083Zm4.521,1.667H6.729l.208-1.25h.479ZM8.25,26.5H6.583a.417.417,0,0,0-.412.35l-.833,5a.337.337,0,0,0,0,.067v1.25H4.291L3.275,31.808l1.162-6.975H8.25Zm1.667,0H9.083V24.833h.833Z" transform="translate(0 -13.398)" fill="#fff"/>
    <path id="Path_31" data-name="Path 31" d="M16.208,12.873a.417.417,0,0,0,.046-.187V11.018a1.254,1.254,0,0,1,1.25-1.25h4.583a2.083,2.083,0,0,1,2.083,2.083v2.154l-6.325,1.188V15.2c-.113-.008-.225-.017-.342-.017H15.037Zm.462,9.812H14.545L13.8,16.018h3.7a2.92,2.92,0,0,1,2.917,2.917A3.756,3.756,0,0,1,16.67,22.685ZM25,25.6H18.337V23.2a4.824,4.824,0,0,0,1.046-.579v0L25,19.256Zm.417-7.5a.725.725,0,0,0-.212.058l-4.337,2.6a4.516,4.516,0,0,0,.383-1.825,3.738,3.738,0,0,0-1.8-3.2l5.17-.971H26.67a.417.417,0,0,1,.417.417v1.667a1.254,1.254,0,0,1-1.25,1.25Zm3.333-7.083V17.51a4.572,4.572,0,0,1-2.038,3.813l-.879.583V18.935a2.083,2.083,0,0,0,2.083-2.083V15.185a1.254,1.254,0,0,0-1.25-1.25H25V11.852a2.92,2.92,0,0,0-2.917-2.917H17.5a2.92,2.92,0,0,1-2.917-2.917V5.6h11.6c1.41.513,1.245,1.359,1.807,2.646a5.384,5.384,0,0,1,.762,2.771Z" transform="translate(-2.587)" fill="#fff"/>
  </g>
</svg>
