<svg xmlns="http://www.w3.org/2000/svg" width="22.246" height="20.25" viewBox="0 0 22.246 20.25">
  <g id="Maps_Icon" data-name="Maps Icon" transform="translate(-344 -681.75)">
    <path id="Shape" d="M6.008,16.389-.884,18.912V3.026L6.008.5Z" transform="translate(344.884 683.088)" fill="#fff"/>
    <path id="Subtraction_4" data-name="Subtraction 4" d="M4.161,20.286h0V9.309c.294-.488.633-.965.992-1.471.263-.37.5-.7.728-1.05a6.412,6.412,0,0,0,1.29-3.5.367.367,0,0,0-.012-.094l3.086-1.242V17.838L4.162,20.286Z" transform="translate(356 681.638)" fill="#fff"/>
    <path id="Subtraction_5" data-name="Subtraction 5" d="M6.8,20.282h0L0,17.708V1.822L3.9,3.3c-.007.091-.011.186-.011.283a.394.394,0,0,0,.038.171,7.143,7.143,0,0,0,1.2,3.01c.231.366.478.732.7,1.054.34.5.691,1.019.983,1.536V20.282Z" transform="translate(352.114 681.638)" fill="#fff"/>
    <path id="Subtraction_6" data-name="Subtraction 6" d="M2.885,8.851v0a16.136,16.136,0,0,0-1.168-1.9A7.421,7.421,0,0,1,.012,2.955H1.842a1.106,1.106,0,1,0,2.211,0H5.907c0,1.474-.911,2.753-1.793,3.99a16.026,16.026,0,0,0-1.227,1.9Zm.063-5.527a.365.365,0,0,1-.369-.369h.737A.365.365,0,0,1,2.948,3.324ZM1.842,2.948H0a2.948,2.948,0,0,1,5.895,0H4.054a1.106,1.106,0,0,0-2.211,0Zm1.474,0H2.579a.369.369,0,0,1,.737,0Z" transform="translate(356.632 681.75)" fill="#fff"/>
  </g>
</svg>
