<svg xmlns="http://www.w3.org/2000/svg" width="26.271" height="20.033" viewBox="0 0 26.271 20.033">
  <g id="News_Icon" data-name="News Icon" transform="translate(-0.053)">
    <path id="Subtraction_1" data-name="Subtraction 1" d="M-32.766-662H-52.845a3.108,3.108,0,0,1-3.1-3.1v-16.618a.281.281,0,0,1,.28-.281H-35.6a.281.281,0,0,1,.281.281V-665.1a2.544,2.544,0,0,0,2.542,2.542,2.544,2.544,0,0,0,2.542-2.542v-16.618a.281.281,0,0,1,.281-.281.281.281,0,0,1,.28.281V-665.1a3.116,3.116,0,0,1-3.078,3.1h-.013Zm-11.623-3.746a.312.312,0,0,0-.312.311.313.313,0,0,0,.312.312h6.244a.313.313,0,0,0,.312-.312.312.312,0,0,0-.312-.311Zm-8.78,0a.312.312,0,0,0-.312.311.313.313,0,0,0,.312.312h6.244a.313.313,0,0,0,.312-.312.312.312,0,0,0-.312-.311Zm8.78-1.886a.313.313,0,0,0-.312.312.313.313,0,0,0,.312.312h6.244a.313.313,0,0,0,.312-.312.313.313,0,0,0-.312-.312Zm-8.78,0a.313.313,0,0,0-.312.312.313.313,0,0,0,.312.312h6.244a.313.313,0,0,0,.312-.312.313.313,0,0,0-.312-.312Zm8.78-1.878a.313.313,0,0,0-.312.312.313.313,0,0,0,.312.312h6.244a.313.313,0,0,0,.312-.312.313.313,0,0,0-.312-.312Zm-8.78-5.628a.313.313,0,0,0-.312.312v5.62a.312.312,0,0,0,.312.311h6.244a.312.312,0,0,0,.312-.311v-5.62a.313.313,0,0,0-.312-.312Zm8.78,3.749a.313.313,0,0,0-.312.312.313.313,0,0,0,.312.312h6.244a.313.313,0,0,0,.312-.312.313.313,0,0,0-.312-.312Zm0-1.878a.313.313,0,0,0-.312.312.313.313,0,0,0,.312.312h6.244a.313.313,0,0,0,.312-.312.313.313,0,0,0-.312-.312Zm0-1.878a.313.313,0,0,0-.312.312.313.313,0,0,0,.312.312h6.244a.313.313,0,0,0,.312-.312.313.313,0,0,0-.312-.312Zm-8.78-5.014a.313.313,0,0,0-.312.312v2.5a.313.313,0,0,0,.312.312h14.987a.313.313,0,0,0,.312-.312v-2.5a.313.313,0,0,0-.312-.312Zm5.932,10.642h-5.62v-5h5.62v4.995Zm8.743-8.143H-52.857v-1.874h14.362v1.873Z" transform="translate(56 682.033)" fill="#fff"/>
    <path id="Path_1" data-name="Path 1" d="M36.249,18.16A1.184,1.184,0,0,0,37.5,16.907V.313a.312.312,0,1,0-.624,0V16.907a.567.567,0,0,1-.624.626.6.6,0,0,1-.624-.626V.313a.312.312,0,1,0-.624,0V16.907A1.211,1.211,0,0,0,36.249,18.16Z" transform="translate(-13.058)" fill="#fff"/>
  </g>
</svg>
