<svg xmlns="http://www.w3.org/2000/svg" width="22" height="22" viewBox="0 0 22 22">
  <g id="Settings_Icon" data-name="Settings Icon" transform="translate(-2 -2)">
    <path id="Path_35" data-name="Path 35" d="M5.212,17.092l-1.375,2.3,2.772,2.772,2.3-1.375a8.712,8.712,0,0,0,1.485.616l.649,2.6h3.916l.649-2.6a8.712,8.712,0,0,0,1.485-.616l2.3,1.375,2.772-2.772-1.375-2.3a8.712,8.712,0,0,0,.616-1.485l2.6-.649V11.042l-2.6-.649a8.712,8.712,0,0,0-.616-1.485l1.375-2.3L19.391,3.837l-2.3,1.375A8.712,8.712,0,0,0,15.607,4.6L14.958,2H11.042l-.649,2.6a8.712,8.712,0,0,0-1.485.616l-2.3-1.375L3.837,6.609l1.375,2.3A8.712,8.712,0,0,0,4.6,10.393L2,11.042v3.916l2.6.649a8.712,8.712,0,0,0,.616,1.485ZM4.2,12.758l2.2-.55.154-.66A6.6,6.6,0,0,1,7.423,9.48l.363-.572L6.609,6.95l.341-.341L8.908,7.786l.572-.363a6.6,6.6,0,0,1,2.057-.858l.66-.154.55-2.2h.484l.55,2.2.66.154a6.6,6.6,0,0,1,2.057.858l.572.363,1.98-1.177.341.341L18.214,8.908l.363.572a6.6,6.6,0,0,1,.858,2.057l.154.66,2.2.55v.484l-2.2.55-.154.66a6.6,6.6,0,0,1-.858,2.057l-.363.572,1.177,1.958-.341.341-1.958-1.177-.572.363a6.6,6.6,0,0,1-2.057.858l-.66.154-.55,2.2h-.484l-.55-2.2-.66-.154A6.6,6.6,0,0,1,9.5,18.555l-.572-.363-1.98,1.2-.341-.341,1.177-1.958-.363-.572a6.6,6.6,0,0,1-.858-2.057L6.4,13.792l-2.2-.55Z" fill="#fff"/>
    <path id="Path_36" data-name="Path 36" d="M11.435,14.87A3.435,3.435,0,1,0,8,11.435,3.435,3.435,0,0,0,11.435,14.87Zm0-5.152a1.717,1.717,0,1,1-1.717,1.717A1.717,1.717,0,0,1,11.435,9.717Z" transform="translate(1.565 1.565)" fill="#fff"/>
  </g>
</svg>
